<svg xmlns="http://www.w3.org/2000/svg" viewBox="0 0 32 32">
  <rect width="32" height="32" rx="6" fill="#0A1F0A"/>
  <!-- bull head: horns + skull, tactical gold -->
  <path d="M4 8 C4 13 8 15 11 15 L11 12 C8 12 6.5 10.5 6.5 8 Z" fill="#D4A017"/>
  <path d="M28 8 C28 13 24 15 21 15 L21 12 C24 12 25.5 10.5 25.5 8 Z" fill="#D4A017"/>
  <path d="M11 12 L21 12 L22.5 18 C22.5 22 20 25 16 25 C12 25 9.5 22 9.5 18 Z" fill="#D4A017"/>
  <circle cx="13" cy="17" r="1.4" fill="#0A1F0A"/>
  <circle cx="19" cy="17" r="1.4" fill="#0A1F0A"/>
  <rect x="14" y="21" width="1.6" height="2.2" fill="#0A1F0A"/>
  <rect x="16.4" y="21" width="1.6" height="2.2" fill="#0A1F0A"/>
</svg>
